<?xml version="1.0" encoding="UTF-8" standalone="no"?>
<svg
   xmlns:dc="http://purl.org/dc/elements/1.1/"
   xmlns:cc="http://creativecommons.org/ns#"
   xmlns:rdf="http://www.w3.org/1999/02/22-rdf-syntax-ns#"
   xmlns:svg="http://www.w3.org/2000/svg"
   xmlns="http://www.w3.org/2000/svg"
   xmlns:sodipodi="http://sodipodi.sourceforge.net/DTD/sodipodi-0.dtd"
   xmlns:inkscape="http://www.inkscape.org/namespaces/inkscape"
   version="1.0"
   width="1407.000000pt"
   height="420.000000pt"
   viewBox="0 0 1407.000000 420.000000"
   preserveAspectRatio="xMidYMid meet"
   id="svg3336"
   inkscape:version="0.91 r13725"
   sodipodi:docname="image33.svg">
  <defs
     id="defs3356" />
  <sodipodi:namedview
     pagecolor="#ffffff"
     bordercolor="#666666"
     borderopacity="1"
     objecttolerance="10"
     gridtolerance="10"
     guidetolerance="10"
     inkscape:pageopacity="0"
     inkscape:pageshadow="2"
     inkscape:window-width="1904"
     inkscape:window-height="1002"
     id="namedview3354"
     showgrid="false"
     inkscape:zoom="0.41336176"
     inkscape:cx="307.61115"
     inkscape:cy="597.27352"
     inkscape:window-x="0"
     inkscape:window-y="738"
     inkscape:window-maximized="0"
     inkscape:current-layer="svg3336" />
  <metadata
     id="metadata3338">
Created by potrace 1.15, written by Peter Selinger 2001-2017
<rdf:RDF>
  <cc:Work
     rdf:about="">
    <dc:format>image/svg+xml</dc:format>
    <dc:type
       rdf:resource="http://purl.org/dc/dcmitype/StillImage" />
  </cc:Work>
</rdf:RDF>
</metadata>
  <path
     style="fill:#000000;stroke:none"
     inkscape:connector-curvature="0"
     id="path3342"
     d="m 142.5,2.2 c -4.4,1.1 -18.3,5.9 -31,10.5 -12.6,4.7 -28.8,10.1 -36,12 -14.7,3.9 -25.9,9 -35.7,16.3 -13.3,9.8 -18,18.8 -24.3,46.8 -2,9 -5.6,22.5 -8,30.2 -6.5,20.6 -7,25.4 -7,73 0,45.2 0.1,46.5 5.9,59.5 8.7,19.5 17.6,31.7 38.5,52.5 34.6,34.5 76,59.2 107.1,64.1 11.4,1.8 46,0.6 57.9,-2 13.1,-2.8 19,-6.1 29.1,-16.1 26.1,-26.2 50,-75.5 50,-103.2 0,-10.5 -1.6,-15 -6.1,-16.9 -5,-2 -9.7,0.2 -19.1,8.8 -5.2,4.7 -10.6,8.7 -14.3,10.4 -7,3.2 -16.5,12.4 -30.3,29.4 -18.1,22.3 -25.9,27.7 -48.7,33.5 -15.3,4 -30.2,5 -39.2,2.7 C 113.9,309.2 95.1,295.1 79.8,275 61.2,250.5 55,230.6 55,194.8 55,154.9 65.1,118.2 81.8,97.5 90.9,86.2 99.2,81.5 123,74.4 c 10.8,-3.2 13.9,-3.7 22.5,-3.7 9.5,0 11.1,0.3 30.5,6.3 16.5,5.1 22.2,6.4 29.1,6.8 8.1,0.4 9.1,0.2 13.9,-2.4 7.3,-4 14.7,-12.5 16.7,-19.3 5,-17.4 -12.8,-40.9 -41.2,-54.2 -16.8,-7.9 -35.6,-10 -52,-5.7 z" />
  <path
     style="fill:#000000;stroke:none"
     inkscape:connector-curvature="0"
     id="path3344"
     d="m 714.7,110.4 c -6.4,2.7 -10.9,5.8 -16.1,11.4 -5.6,5.8 -6,8.2 -5,28.7 0.5,9.9 0.9,22.5 0.9,28 0,16.5 -2.5,18.9 -21.3,20.4 -12,1 -13.3,1.4 -18,4.8 -5.4,4.1 -15,7.9 -28.2,11.3 -16,4.1 -24.2,7.2 -30.8,11.6 -9.3,6.1 -12.2,6.2 -12.2,0.4 0,-4.8 -3,-12.7 -7,-18.8 -5.6,-8.4 -9.6,-9.9 -21.7,-8.3 -10.8,1.4 -21.6,4.7 -24.7,7.6 -4.1,3.8 -5.8,12 -5.5,25.9 0.4,11.5 0.6,12.6 3.6,18.4 4.7,8.8 5.3,15.9 6.3,72.7 0.5,27.5 1.4,52.5 1.9,55.5 3,16.3 9.1,21.4 23.6,19.5 6.9,-0.8 11.3,-3.8 14.7,-10 3.5,-6.4 5.3,-14.6 8.4,-37 9.9,-72.1 12,-79.6 27.5,-95.9 8.9,-9.5 20.2,-18.4 27,-21.4 2.4,-1.1 7.3,-2.5 10.9,-3.1 3.6,-0.7 14.9,-4 25.2,-7.5 l 18.7,-6.3 -0.1,46.1 c -0.2,56.6 2,90.5 7.3,117 3.1,15.4 5.7,19 19,26.5 17.4,9.8 41.9,14.7 55,11.1 7.7,-2.2 12.4,-11.7 8.2,-16.9 -1.8,-2.2 -3.1,-2.5 -12.4,-3.2 -10.9,-0.7 -16.2,-2.3 -19.1,-5.5 -6.7,-7.5 -8.5,-22.7 -6.9,-57.4 2.4,-51.8 8.4,-102.8 13.7,-115.9 2.2,-5.5 6.1,-6.6 36.4,-10.1 19.9,-2.3 27.5,-3.5 34.2,-5.5 8.9,-2.6 13.8,-6.3 13.8,-10.5 0,-7.8 -12.3,-10.6 -51.1,-11.9 -16.5,-0.6 -26.4,-1.3 -27.8,-2.1 -2.1,-1 -2.2,-1.7 -1.6,-5.8 0.3,-2.6 1.3,-7.4 2.2,-10.7 1,-3.8 1.4,-8.7 1.1,-13.5 -0.4,-6.6 -1,-8.7 -5.2,-16.7 -8.4,-16.2 -18.7,-24.3 -32.1,-25 -5.7,-0.3 -8,0.1 -12.8,2.1 z" />
  <path
     style="fill:#000000;stroke:none"
     inkscape:connector-curvature="0"
     id="path3346"
     d="m 1052,171.5 c -6.1,1.9 -12.5,7.6 -15.7,13.9 -3.7,6.9 -3.8,19.1 -0.4,28.1 1.3,3.3 2.9,7.6 3.6,9.5 3.1,8.5 5.5,33.7 8,85.5 2.5,50.9 5.4,74.1 10.8,85.9 2.8,6.1 9.8,12.1 15.5,13.2 4.1,0.8 11.5,-1.2 13.9,-3.8 2.5,-2.8 2.8,-14.5 1.3,-53.3 -1.6,-39.4 -1.3,-41.6 6.9,-59.4 3.2,-6.9 7.1,-16.3 8.6,-20.8 4.3,-13 8.9,-19.2 24.8,-33.5 l 8.7,-7.9 7.8,5.6 c 11,8.1 14.8,12.5 17.3,20.4 1.1,3.6 4.7,23.5 7.9,44.1 9,56.6 11.1,65.2 16.5,66.6 1.5,0.4 4.7,0.4 7.3,0 7.8,-1 13.1,-6.3 13.9,-13.9 0.5,-3.8 0,-5.8 -3,-11.9 -4.1,-8.5 -6.3,-18.2 -10.7,-48.8 -1.7,-11.8 -4.2,-26.5 -5.6,-32.7 -6.5,-30.8 -16.1,-55.9 -24.3,-63.7 l -3,-2.9 -11.3,0.6 c -6.2,0.3 -19.3,2.1 -29.1,4 l -17.8,3.4 -7.9,-9.3 c -11.8,-13.8 -20.7,-19.2 -32.8,-20 -4.3,-0.2 -8.3,0.1 -11.2,1.1 z" />
  <path
     style="fill:#000000;stroke:none"
     inkscape:connector-curvature="0"
     id="path3348"
     d="m 888,176 c -17.7,3.7 -32.3,11.9 -48.7,27.5 -11.8,11 -14.6,16.2 -14.6,27.3 0,13.3 3,16.6 16.4,18.3 14.9,1.9 33.8,-0.1 46.2,-5.1 9,-3.5 15.8,-4.4 23.2,-3.1 12.1,2.2 20.4,8.1 27.7,19.5 l 3.2,4.8 -2.5,2 c -3.7,2.9 -27.6,14.4 -34.9,16.6 -3.6,1.1 -9,2.3 -12,2.7 -13.4,1.5 -27,12.1 -34.7,27 -6.6,12.8 -9,24.9 -7.3,37.8 2.6,20.6 12.1,30.6 35.9,37.8 5.7,1.7 8.8,2 14,1.6 13.3,-1.1 39.4,-12 59,-24.7 6.2,-3.9 11.4,-7 11.5,-6.8 0.2,0.1 2.3,4 4.7,8.6 5.9,11.2 9.8,15.4 14,15 10.4,-1 11.1,-20.5 2.8,-71.8 -4.9,-29.7 -11.1,-58.2 -18.4,-84 -5.1,-17.7 -8.6,-27.1 -12,-31.6 -5.1,-6.7 -22,-15.4 -37.5,-19.4 -9.9,-2.5 -24.3,-2.5 -36,0 z m 60.8,133 c 0.6,5.8 -1.5,10.6 -7.5,17.1 -7.2,7.7 -15.1,13.3 -27.8,19.7 -15.9,7.9 -20.7,8.4 -23.4,2.5 -4.3,-9.5 3.8,-21.7 21,-31.6 9.7,-5.5 28.2,-11.8 33.9,-11.4 3.2,0.2 3.5,0.5 3.8,3.7 z" />
  <path
     style="fill:#000000;stroke:none"
     inkscape:connector-curvature="0"
     id="path3350"
     d="m 1289.5,175.1 c -11.1,2.2 -35.9,17 -48.2,28.8 -2.8,2.8 -6.4,7.2 -8,9.8 -2.7,4.6 -2.8,5.4 -2.8,16.9 0,10.6 0.3,12.5 1.9,14.3 5.5,6.1 24,5.5 65.1,-1.9 6.1,-1 13.8,-2 17.1,-2 5.6,0 6.8,0.4 12.2,4 6.5,4.4 16.6,14.7 17.7,18 1.1,3.3 -1.7,5.5 -15.9,12.5 -15.6,7.7 -22.6,10.1 -33,11.4 -15.4,1.9 -28,11.4 -35.1,26.3 -5.2,10.9 -6.7,19.7 -6.3,35.8 0.4,16.3 2,20.3 10.6,28.1 8.7,7.7 17,11.4 28.9,12.9 9,1.2 10.8,1.1 17.4,-0.5 16,-3.9 37.1,-13.5 53.7,-24.4 5.1,-3.4 9.5,-6.1 9.7,-6.1 0.3,0 2.2,3.5 4.4,7.8 5.9,11.6 11.5,16.2 20,16.2 9.4,0 10.3,-7.8 4.1,-36.7 -2.3,-10.2 -6.5,-32.2 -9.6,-48.7 -12.6,-68.9 -19.5,-93.5 -29,-103 -8,-7.9 -19.5,-14 -34.9,-18.2 -7.2,-1.9 -32.5,-2.8 -40,-1.3 z m 63.5,132.5 c 2.2,5.6 -3.5,16.2 -13,24.1 -9.9,8.3 -28.9,18.5 -38.2,20.7 -3.9,0.9 -7.8,-2.7 -8.5,-8.1 -1.3,-9.8 8.8,-20.9 27,-29.8 11.5,-5.6 22.7,-9.3 28.5,-9.4 2.6,-0.1 3.4,0.4 4.2,2.5 z" />
  <path
     style="fill:#000000;stroke:none"
     inkscape:connector-curvature="0"
     id="path3352"
     d="m 361.7,200.5 c -3.3,1.1 -6.4,3.3 -10.3,7.3 -6.9,6.9 -18.6,24.4 -21.5,32.1 -8.1,21.2 -11.6,69.4 -6.1,84.5 4.5,12.2 16.4,28 28.1,37 12.9,9.9 19.5,11.6 48.2,12.3 35.3,0.9 46.7,-1.9 60.1,-14.6 15.2,-14.3 25.7,-34.6 27.4,-53 1.4,-15 -7.1,-33.6 -22.5,-49 -3.7,-3.6 -12.9,-10.8 -20.5,-16 -7.6,-5.2 -15.6,-11.2 -17.9,-13.4 -3.9,-3.7 -4.3,-3.9 -9.4,-3.5 -6.8,0.6 -9.5,2.9 -9.1,7.7 0.2,2.5 1,3.9 2.6,4.7 3.6,1.8 4.4,2.9 5.3,7.9 1.2,6.2 6.2,12.9 14.9,19.9 8,6.5 13.7,13.6 17.7,22.1 2.4,5.2 2.8,7.2 2.8,15 0,7.7 -0.4,9.8 -2.7,14.7 -3.2,7 -10.3,14.3 -16.6,17 -7.1,3.2 -18.1,3.6 -26.1,0.8 -20.6,-6.9 -33,-24.6 -30,-42.9 2.5,-15.7 14.9,-45.4 22.7,-54.4 4.8,-5.5 5.6,-8.7 5,-20 -0.5,-9.3 -2.3,-13.7 -6.5,-15.7 -4.3,-2.1 -29.4,-2.4 -35.6,-0.5 z" />
</svg>
